<?xml version="1.0" encoding="UTF-8" standalone="no"?>
<svg
   xmlns:dc="http://purl.org/dc/elements/1.1/"
   xmlns:cc="http://web.resource.org/cc/"
   xmlns:rdf="http://www.w3.org/1999/02/22-rdf-syntax-ns#"
   xmlns:svg="http://www.w3.org/2000/svg"
   xmlns="http://www.w3.org/2000/svg"
   xmlns:xlink="http://www.w3.org/1999/xlink"
   xmlns:sodipodi="http://sodipodi.sourceforge.net/DTD/sodipodi-0.dtd"
   xmlns:inkscape="http://www.inkscape.org/namespaces/inkscape"
   width="561.19"
   height="79.912086"
   id="svg2"
   sodipodi:version="0.32"
   inkscape:version="0.45"
   sodipodi:docname="ATA_Plug.svg"
   sodipodi:docbase="/home/rugby471/Desktop"
   inkscape:output_extension="org.inkscape.output.svg.inkscape"
   version="1.0"
   sodipodi:modified="true">
  <metadata
     id="metadata143">
    <rdf:RDF>
      <cc:Work
         rdf:about="">
        <dc:format>image/svg+xml</dc:format>
        <dc:type
           rdf:resource="http://purl.org/dc/dcmitype/StillImage" />
      </cc:Work>
    </rdf:RDF>
  </metadata>
  <defs
     id="defs141" />
  <sodipodi:namedview
     inkscape:window-height="712"
     inkscape:window-width="1024"
     inkscape:pageshadow="2"
     inkscape:pageopacity="0.0"
     guidetolerance="10.0"
     gridtolerance="10.0"
     objecttolerance="10.0"
     borderopacity="1.0"
     bordercolor="#666666"
     pagecolor="#ffffff"
     id="base"
     inkscape:zoom="1"
     inkscape:cx="249.12212"
     inkscape:cy="8.3878081"
     inkscape:window-x="0"
     inkscape:window-y="0"
     inkscape:current-layer="svg2"
     width="561.19px"
     height="79.912086px" />
  <g
     id="g3705">
    <path
       sodipodi:nodetypes="ccccccccccccccccccc"
       id="path3398"
       d="M 272.80275,77.417317 L 519.54023,77.417317 L 520.25267,13.597865 L 467.26269,13.597865 L 461.29574,20.129096 L 451.05399,20.129096 L 440.18878,13.317955 L 290.7481,13.317955 L 290.7481,2.4947725 L 272.80275,2.4947725 L 254.8574,2.4947725 L 254.8574,13.317955 L 105.4167,13.317955 L 94.551524,20.129096 L 84.309759,20.129096 L 78.431879,13.597865 L 25.352822,13.597865 L 26.065293,77.417317 L 272.80275,77.417317 z "
       style="fill:#537caa;fill-opacity:1;fill-rule:evenodd;stroke:#000000;stroke-width:2.98954487px;stroke-linecap:butt;stroke-linejoin:miter;stroke-opacity:1" />
    <g
       style="fill:#000000;fill-opacity:1"
       transform="matrix(2.850276,0,0,2.850276,-5.5890521,89.512791)"
       id="g2383">
      <rect
         style="fill:#000000;fill-opacity:1;stroke:none;stroke-width:1.25999999;stroke-miterlimit:4;stroke-dasharray:none;stroke-dashoffset:0;stroke-opacity:1"
         id="rect2295"
         width="5.9117646"
         height="5.5176473"
         x="18.966911"
         y="-21.516176" />
      <rect
         y="-21.516176"
         x="90.958191"
         height="5.5176473"
         width="5.9117646"
         id="use2299"
         style="fill:#000000;fill-opacity:1;stroke:none;stroke-width:1.25999999;stroke-miterlimit:4;stroke-dasharray:none;stroke-dashoffset:0;stroke-opacity:1" />
      <use
         style="fill:#000000;fill-opacity:1"
         x="0"
         y="0"
         xlink:href="#use2299"
         id="use2301"
         transform="translate(7.999031,0)"
         width="201"
         height="31" />
      <use
         style="fill:#000000;fill-opacity:1"
         x="0"
         y="0"
         xlink:href="#use2301"
         id="use2303"
         transform="translate(7.9990311,0)"
         width="201"
         height="31" />
      <use
         style="fill:#000000;fill-opacity:1"
         x="0"
         y="0"
         xlink:href="#use2303"
         id="use2305"
         transform="translate(7.9990311,0)"
         width="201"
         height="31" />
      <use
         style="fill:#000000;fill-opacity:1"
         x="0"
         y="0"
         xlink:href="#use2305"
         id="use2307"
         transform="translate(7.999031,0)"
         width="201"
         height="31" />
      <use
         style="fill:#000000;fill-opacity:1"
         x="0"
         y="0"
         xlink:href="#use2307"
         id="use2309"
         transform="translate(7.9990387,0)"
         width="201"
         height="31" />
      <use
         style="fill:#000000;fill-opacity:1"
         x="0"
         y="0"
         xlink:href="#use2309"
         id="use2311"
         transform="translate(7.9990387,0)"
         width="201"
         height="31" />
      <use
         style="fill:#000000;fill-opacity:1"
         x="0"
         y="0"
         xlink:href="#use2311"
         id="use2313"
         transform="translate(7.9990387,0)"
         width="201"
         height="31" />
      <use
         style="fill:#000000;fill-opacity:1"
         x="0"
         y="0"
         xlink:href="#use2313"
         id="use2315"
         transform="translate(15.998077,0)"
         width="201"
         height="31" />
      <use
         style="fill:#000000;fill-opacity:1"
         x="0"
         y="0"
         xlink:href="#use2315"
         id="use2317"
         transform="translate(7.9990387,0)"
         width="201"
         height="31" />
      <use
         style="fill:#000000;fill-opacity:1"
         x="0"
         y="0"
         xlink:href="#use2313"
         id="use2319"
         transform="translate(7.9990387,0)"
         width="201"
         height="31" />
      <rect
         y="-21.516176"
         x="26.965942"
         height="5.5176473"
         width="5.9117646"
         id="use2321"
         style="fill:#000000;fill-opacity:1;stroke:none;stroke-width:1.25999999;stroke-miterlimit:4;stroke-dasharray:none;stroke-dashoffset:0;stroke-opacity:1" />
      <use
         style="fill:#000000;fill-opacity:1"
         x="0"
         y="0"
         xlink:href="#use2321"
         id="use2323"
         transform="translate(7.999033,0)"
         width="201"
         height="31" />
      <use
         style="fill:#000000;fill-opacity:1"
         x="0"
         y="0"
         xlink:href="#use2323"
         id="use2325"
         transform="translate(7.999031,0)"
         width="201"
         height="31" />
      <use
         style="fill:#000000;fill-opacity:1"
         x="0"
         y="0"
         xlink:href="#use2325"
         id="use2327"
         transform="translate(7.9990311,0)"
         width="201"
         height="31" />
      <use
         style="fill:#000000;fill-opacity:1"
         x="0"
         y="0"
         xlink:href="#use2327"
         id="use2329"
         transform="translate(7.9990311,0)"
         width="201"
         height="31" />
      <use
         style="fill:#000000;fill-opacity:1"
         x="0"
         y="0"
         xlink:href="#use2329"
         id="use2331"
         transform="translate(7.999031,0)"
         width="201"
         height="31" />
      <use
         style="fill:#000000;fill-opacity:1"
         x="0"
         y="0"
         xlink:href="#use2331"
         id="use2333"
         transform="translate(7.9990311,0)"
         width="201"
         height="31" />
      <use
         style="fill:#000000;fill-opacity:1"
         x="0"
         y="0"
         xlink:href="#use2333"
         id="use2335"
         transform="translate(7.9990311,0)"
         width="201"
         height="31" />
    </g>
    <use
       style="fill:#000000;fill-opacity:1"
       height="31"
       width="201"
       transform="translate(0,23.871063)"
       id="use2405"
       xlink:href="#g2383"
       y="0"
       x="0" />
    <path
       id="text3523"
       d="M 3.2908137,38.422969 L 7.8407214,38.422969 L 7.8407214,22.718894 L 2.8909733,23.711601 L 2.8909733,21.174682 L 7.8131462,20.181975 L 10.598241,20.181975 L 10.598241,38.422969 L 15.148149,38.422969 L 15.148149,40.766861 L 3.2908137,40.766861 L 3.2908137,38.422969 M 5.20729,73.719226 L 14.927547,73.719226 L 14.927547,76.063118 L 1.8569034,76.063118 L 1.8569034,73.719226 C 2.9139495,72.625413 4.3524543,71.159333 6.1724219,69.320982 C 8.0015686,67.473452 9.150534,66.283124 9.6193218,65.749994 C 10.510909,64.748106 11.13135,63.902468 11.480648,63.213075 C 11.839113,62.514517 12.018352,61.829734 12.018364,61.158723 C 12.018352,60.064923 11.632299,59.173326 10.860206,58.483929 C 10.097282,57.794567 9.0999795,57.449878 7.8682966,57.449859 C 6.9950748,57.449878 6.0713066,57.601541 5.0969892,57.90485 C 4.1318529,58.208195 3.097784,58.667781 1.9947793,59.28361 L 1.9947793,56.470939 C 3.1161674,56.020565 4.1640239,55.680471 5.138352,55.450657 C 6.1126693,55.220885 7.0042665,55.105988 7.8131462,55.105967 C 9.9456181,55.105988 11.646087,55.639108 12.914558,56.705329 C 14.183003,57.771588 14.817232,59.196305 14.817247,60.979484 C 14.817232,61.825138 14.656376,62.629414 14.334681,63.392314 C 14.022148,64.146048 13.447665,65.037645 12.611231,66.067109 C 12.381425,66.333678 11.650683,67.105783 10.419003,68.383425 C 9.1873009,69.651891 7.4500651,71.430489 5.20729,73.719226"
       style="font-size:28.23700333px;font-family:Bitstream Vera Sans" />
    <path
       id="text3535"
       d="M 537.11173,30.369935 C 538.44452,30.654889 539.48318,31.247755 540.22773,32.148535 C 540.98144,33.049333 541.3583,34.161532 541.35831,35.485134 C 541.3583,37.516511 540.65972,39.088296 539.2626,40.200493 C 537.86544,41.312693 535.88003,41.868792 533.30635,41.868793 C 532.44232,41.868792 531.55073,41.781471 530.63156,41.606828 C 529.72157,41.441377 528.77942,41.188605 527.8051,40.84851 L 527.8051,38.159928 C 528.5772,38.610326 529.42284,38.95042 530.34202,39.180211 C 531.26119,39.410006 532.22172,39.524903 533.22363,39.524901 C 534.97005,39.524903 536.29825,39.180213 537.20824,38.490831 C 538.1274,37.801454 538.58699,36.799557 538.587,35.485134 C 538.58699,34.271833 538.15958,33.325085 537.30476,32.644889 C 536.45911,31.955518 535.27797,31.610829 533.76134,31.610819 L 531.3623,31.610819 L 531.3623,29.322077 L 533.87165,29.322077 C 535.2412,29.322089 536.28906,29.050934 537.01522,28.508609 C 537.74135,27.957118 538.10443,27.16663 538.10444,26.137142 C 538.10443,25.080109 537.72756,24.271237 536.97385,23.710524 C 536.22931,23.140655 535.15848,22.855712 533.76134,22.855693 C 532.99842,22.855712 532.18036,22.938437 531.30715,23.10387 C 530.43393,23.269339 529.4734,23.526708 528.42554,23.875975 L 528.42554,21.394208 C 529.48259,21.100093 530.4707,20.879491 531.38988,20.732403 C 532.31824,20.585356 533.19145,20.511822 534.00952,20.511801 C 536.12361,20.511822 537.7965,20.994388 539.02821,21.959499 C 540.25988,22.915458 540.87573,24.211491 540.87575,25.847602 C 540.87573,26.987392 540.54942,27.952523 539.89683,28.742998 C 539.2442,29.524307 538.31584,30.066619 537.11173,30.369935 M 546.73547,41.041537 L 546.73547,38.504618 C 547.43404,38.835523 548.1418,39.088296 548.85876,39.262936 C 549.57571,39.437581 550.27888,39.524903 550.96827,39.524901 C 552.8066,39.524903 554.20834,38.909057 555.17349,37.677362 C 556.1478,36.436483 556.7039,34.556776 556.84178,32.038234 C 556.30865,32.828732 555.63306,33.435386 554.81501,33.858197 C 553.99693,34.281024 553.09155,34.492434 552.09885,34.492427 C 550.0399,34.492434 548.40836,33.871993 547.20425,32.631101 C 546.00933,31.381035 545.41186,29.675971 545.41186,27.515902 C 545.41186,25.401819 546.0369,23.705946 547.28698,22.428278 C 548.53705,21.150647 550.20075,20.511822 552.27809,20.511801 C 554.65874,20.511822 556.4741,21.426399 557.72419,23.255534 C 558.98344,25.075513 559.61308,27.722729 559.61309,31.197191 C 559.61308,34.441879 558.84097,37.033946 557.29678,38.973397 C 555.76174,40.903661 553.69361,41.868792 551.09236,41.868793 C 550.39378,41.868792 549.68601,41.799854 548.96907,41.661979 C 548.25211,41.524103 547.50758,41.317289 546.73547,41.041537 M 552.27809,32.313986 C 553.52816,32.313995 554.51627,31.88658 555.24242,31.03174 C 555.97775,30.17692 556.34542,29.004975 556.34543,27.515902 C 556.34542,26.036048 555.97775,24.868699 555.24242,24.013851 C 554.51627,23.149847 553.52816,22.717836 552.27809,22.717817 C 551.02801,22.717836 550.0353,23.149847 549.29997,24.013851 C 548.57382,24.868699 548.21074,26.036048 548.21075,27.515902 C 548.21074,29.004975 548.57382,30.17692 549.29997,31.03174 C 550.0353,31.88658 551.02801,32.313995 552.27809,32.313986 M 536.32584,58.606937 L 529.29416,69.595654 L 536.32584,69.595654 L 536.32584,58.606937 M 535.59509,56.18032 L 539.09715,56.18032 L 539.09715,69.595654 L 542.0339,69.595654 L 542.0339,71.91197 L 539.09715,71.91197 L 539.09715,76.765205 L 536.32584,76.765205 L 536.32584,71.91197 L 527.033,71.91197 L 527.033,69.223389 L 535.59509,56.18032 M 552.60899,58.01407 C 551.17507,58.014089 550.09505,58.721852 549.36891,60.137361 C 548.65195,61.543711 548.29347,63.662403 548.29347,66.493444 C 548.29347,69.315313 548.65195,71.434006 549.36891,72.849527 C 550.09505,74.255865 551.17507,74.959032 552.60899,74.95903 C 554.05208,74.959032 555.13211,74.255865 555.84908,72.849527 C 556.57521,71.434006 556.93828,69.315313 556.9383,66.493444 C 556.93828,63.662403 556.57521,61.543711 555.84908,60.137361 C 555.13211,58.721852 554.05208,58.014089 552.60899,58.01407 M 552.60899,55.808054 C 554.91611,55.808075 556.67632,56.722652 557.88964,58.551787 C 559.11213,60.371766 559.72338,63.018983 559.72339,66.493444 C 559.72338,69.958734 559.11213,72.60595 557.88964,74.435101 C 556.67632,76.255065 554.91611,77.165045 552.60899,77.165046 C 550.30186,77.165045 548.53705,76.255065 547.31455,74.435101 C 546.10124,72.60595 545.49459,69.958734 545.49459,66.493444 C 545.49459,63.018983 546.10124,60.371766 547.31455,58.551787 C 548.53705,56.722652 550.30186,55.808075 552.60899,55.808054"
       style="font-size:28.23700333px;font-family:Bitstream Vera Sans" />
  </g>
</svg>
